<svg width="11" height="14" viewBox="0 0 11 14" fill="none" xmlns="http://www.w3.org/2000/svg">
<path d="M5.64437 0.333313C4.22988 0.333313 2.87333 0.895216 1.87313 1.89541C0.872938 2.8956 0.311035 4.25216 0.311035 5.66665C0.311035 9.26665 5.01104 13.3333 5.21104 13.5066C5.33179 13.6099 5.48547 13.6667 5.64437 13.6667C5.80327 13.6667 5.95695 13.6099 6.0777 13.5066C6.31104 13.3333 10.9777 9.26665 10.9777 5.66665C10.9777 4.25216 10.4158 2.8956 9.41561 1.89541C8.41541 0.895216 7.05886 0.333313 5.64437 0.333313ZM5.64437 12.1C4.22437 10.7666 1.64437 7.89331 1.64437 5.66665C1.64437 4.60578 2.0658 3.58836 2.81594 2.83822C3.56609 2.08807 4.5835 1.66665 5.64437 1.66665C6.70523 1.66665 7.72265 2.08807 8.4728 2.83822C9.22294 3.58836 9.64437 4.60578 9.64437 5.66665C9.64437 7.89331 7.06437 10.7733 5.64437 12.1ZM5.64437 2.99998C5.11695 2.99998 4.60138 3.15638 4.16285 3.44939C3.72432 3.74241 3.38252 4.15889 3.18069 4.64616C2.97886 5.13343 2.92605 5.6696 3.02894 6.18689C3.13183 6.70417 3.38581 7.17932 3.75875 7.55226C4.13169 7.9252 4.60685 8.17918 5.12413 8.28207C5.64141 8.38497 6.17759 8.33216 6.66486 8.13033C7.15213 7.92849 7.5686 7.5867 7.86162 7.14817C8.15464 6.70964 8.31104 6.19406 8.31104 5.66665C8.31104 4.9594 8.03008 4.28113 7.52999 3.78103C7.02989 3.28093 6.35161 2.99998 5.64437 2.99998ZM5.64437 6.99998C5.38066 6.99998 5.12287 6.92178 4.90361 6.77527C4.68434 6.62876 4.51345 6.42053 4.41253 6.17689C4.31161 5.93326 4.28521 5.66517 4.33665 5.40653C4.3881 5.14788 4.51509 4.91031 4.70156 4.72384C4.88803 4.53737 5.12561 4.41038 5.38425 4.35893C5.64289 4.30749 5.91098 4.33389 6.15461 4.43481C6.39825 4.53572 6.60649 4.70662 6.75299 4.92589C6.8995 5.14515 6.9777 5.40294 6.9777 5.66665C6.9777 6.02027 6.83723 6.35941 6.58718 6.60946C6.33713 6.8595 5.99799 6.99998 5.64437 6.99998Z" fill="#A2A5BF"/>
</svg>
