<svg width="257" height="33" viewBox="0 0 257 33" fill="none" xmlns="http://www.w3.org/2000/svg">
<path d="M23.288 3.708C23.288 4.88133 23.3907 6.7 23.596 9.164C22.98 9.45733 22.2467 9.58933 21.396 9.56C21.3373 7.8 20.912 6.46533 20.12 5.556C19.328 4.64667 18.096 4.192 16.424 4.192H14.092V26.412C14.092 27.4387 14.18 28.216 14.356 28.744C14.532 29.2427 14.8547 29.6093 15.324 29.844C15.8227 30.0493 16.556 30.1813 17.524 30.24C17.6707 30.6507 17.744 31.2813 17.744 32.132C15.8667 32.044 13.9453 32 11.98 32C9.78 32 7.85867 32.044 6.216 32.132C6.216 31.2813 6.28933 30.6507 6.436 30.24C7.404 30.1813 8.13733 30.0493 8.636 29.844C9.13467 29.6093 9.472 29.228 9.648 28.7C9.85333 28.172 9.956 27.4093 9.956 26.412V4.192H7.712C6.36267 4.192 5.32133 4.412 4.588 4.852C3.85467 5.26266 3.32667 5.83467 3.004 6.568C2.71067 7.272 2.44667 8.26933 2.212 9.56C1.244 9.56 0.54 9.428 0.1 9.164C0.569333 6.524 0.804 4.17733 0.804 2.124C2.44667 2.212 6.18667 2.256 12.024 2.256C17.9493 2.256 21.7187 2.212 23.332 2.124L23.288 3.708ZM48.2989 30.24C48.4456 30.68 48.5189 31.3107 48.5189 32.132C47.2576 32.044 45.6589 32 43.7229 32C42.5202 32 41.0682 32.0293 39.3669 32.088C39.1616 32.1173 38.8682 32.132 38.4869 32.132C38.4869 31.2813 38.5602 30.6507 38.7069 30.24C39.7922 30.24 40.5696 29.9613 41.0389 29.404C41.5082 28.8467 41.7429 27.8493 41.7429 26.412V19.724C41.7429 17.788 41.3762 16.4093 40.6429 15.588C39.9389 14.7667 38.9416 14.356 37.6509 14.356C36.8296 14.356 36.0376 14.6053 35.2749 15.104C34.5122 15.6027 33.8816 16.4093 33.3829 17.524C32.9136 18.6387 32.6789 20.032 32.6789 21.704V26.412C32.6789 27.8787 32.8989 28.8907 33.3389 29.448C33.7789 29.976 34.5709 30.24 35.7149 30.24C35.8616 30.68 35.9349 31.3107 35.9349 32.132C33.4709 32.044 31.7256 32 30.6989 32C28.4989 32 26.7536 32.044 25.4629 32.132C25.4629 31.2813 25.5362 30.6507 25.6829 30.24C26.8269 30.24 27.6189 29.976 28.0589 29.448C28.4989 28.8907 28.7189 27.8787 28.7189 26.412V6.7C28.7189 5.93733 28.6456 5.336 28.4989 4.896C28.3522 4.456 28.0442 4.13333 27.5749 3.928C27.1056 3.69333 26.3869 3.576 25.4189 3.576C25.4189 2.90133 25.5509 2.35867 25.8149 1.948C26.5482 1.948 27.5896 1.78667 28.9389 1.464C30.2882 1.14133 31.2122 0.803999 31.7109 0.452C32.3562 0.657332 32.6789 1.244 32.6789 2.212V13.388C32.6789 14.3267 32.5762 15.192 32.3709 15.984C32.4296 15.896 32.5029 15.7493 32.5909 15.544C32.7082 15.3093 32.8549 15.0747 33.0309 14.84C33.6176 14.0187 34.4682 13.2853 35.5829 12.64C36.7269 11.9947 38.0029 11.672 39.4109 11.672C41.2589 11.672 42.7696 12.244 43.9429 13.388C45.1162 14.532 45.7029 16.3507 45.7029 18.844V26.412C45.7029 27.8787 45.9082 28.8907 46.3189 29.448C46.7296 29.976 47.3896 30.24 48.2989 30.24ZM67.9538 27.38C68.1885 27.5267 68.4085 27.732 68.6138 27.996C68.8485 28.26 68.9805 28.5093 69.0098 28.744C68.0125 30.0347 66.8685 30.9733 65.5778 31.56C64.3165 32.1173 62.8498 32.396 61.1778 32.396C59.1538 32.396 57.4378 31.9413 56.0298 31.032C54.6512 30.0933 53.6098 28.832 52.9058 27.248C52.2018 25.664 51.8498 23.8893 51.8498 21.924C51.8498 20.0173 52.2165 18.272 52.9498 16.688C53.7125 15.104 54.7832 13.8427 56.1618 12.904C57.5405 11.936 59.1392 11.452 60.9578 11.452C63.6272 11.452 65.6072 12.288 66.8978 13.96C68.2178 15.6027 68.9805 17.8027 69.1858 20.56C69.0685 21.1467 68.8485 21.6453 68.5258 22.056C63.3632 22.056 59.2565 22.1293 56.2058 22.276C56.3525 24.5347 56.9098 26.3827 57.8778 27.82C58.8752 29.228 60.4445 29.932 62.5858 29.932C63.5832 29.932 64.5512 29.712 65.4898 29.272C66.4285 28.832 67.2498 28.2013 67.9538 27.38ZM60.5618 13.564C59.3885 13.564 58.3912 14.0627 57.5698 15.06C56.7485 16.0573 56.2792 17.7293 56.1618 20.076H64.6098C64.6098 18.1107 64.2432 16.5413 63.5098 15.368C62.8058 14.1653 61.8232 13.564 60.5618 13.564ZM85.4497 2.168C90.3484 2.168 94.279 3.18 97.2417 5.204C100.234 7.19867 101.73 10.924 101.73 16.38C101.73 20.7213 100.776 24.0507 98.8697 26.368C96.963 28.656 94.7924 30.1667 92.3577 30.9C89.9524 31.6333 87.6204 32 85.3617 32C81.1964 32 77.0017 32.044 72.7777 32.132C72.7777 30.9587 72.8804 30.064 73.0857 29.448C73.907 29.3893 74.523 29.2427 74.9337 29.008C75.3737 28.744 75.667 28.304 75.8137 27.688C75.9897 27.0427 76.0777 26.0747 76.0777 24.784V9.164C76.0777 7.99067 75.9897 7.11067 75.8137 6.524C75.667 5.93733 75.3884 5.52666 74.9777 5.292C74.567 5.05733 73.9364 4.896 73.0857 4.808C72.9097 4.28 72.8217 3.38533 72.8217 2.124C74.523 2.212 77.1044 2.256 80.5657 2.256C81.5044 2.256 82.223 2.24133 82.7217 2.212L85.4497 2.168ZM86.3297 29.316C88.823 29.316 90.8764 28.4507 92.4897 26.72C94.103 24.9893 94.9097 21.792 94.9097 17.128C94.9097 12.728 93.9857 9.56 92.1377 7.624C90.319 5.65866 87.987 4.676 85.1417 4.676C84.203 4.676 83.367 4.82267 82.6337 5.116V24.696C82.6337 25.9573 82.7364 26.9107 82.9417 27.556C83.147 28.2013 83.5137 28.656 84.0417 28.92C84.5697 29.184 85.3324 29.316 86.3297 29.316ZM132.181 29.448C132.386 30.152 132.489 31.0467 132.489 32.132C131.14 32.044 129.13 32 126.461 32C123.498 32 121.357 32.044 120.037 32.132C120.037 30.9587 120.154 30.064 120.389 29.448C121.093 29.3307 121.606 29.1693 121.929 28.964C122.252 28.7293 122.413 28.4067 122.413 27.996C122.413 27.6147 122.222 26.9693 121.841 26.06L120.785 23.552C116.854 23.552 113.246 23.6547 109.961 23.86L109.389 25.4C109.066 26.2213 108.905 26.896 108.905 27.424C108.905 28.5973 109.609 29.272 111.017 29.448C111.222 30.0933 111.325 30.988 111.325 32.132C110.328 32.044 108.773 32 106.661 32C104.901 32 103.581 32.044 102.701 32.132C102.701 31.0467 102.833 30.152 103.097 29.448C103.83 29.3307 104.417 28.9787 104.857 28.392C105.326 27.776 105.913 26.6027 106.617 24.872L115.813 2.212C116.224 2.124 116.634 2.06533 117.045 2.036C117.456 2.00666 117.91 1.992 118.409 1.992L128.485 24.652C129.101 26.0013 129.585 26.9987 129.937 27.644C130.318 28.2893 130.67 28.744 130.993 29.008C131.316 29.2427 131.712 29.3893 132.181 29.448ZM119.729 21.132L117.265 15.412C116.356 13.388 115.666 11.5253 115.197 9.824C114.669 11.584 114.024 13.4467 113.261 15.412L111.061 21.132H119.729ZM138.338 9.164C138.338 7.96133 138.25 7.08133 138.074 6.524C137.928 5.93733 137.649 5.52666 137.238 5.292C136.857 5.05733 136.256 4.896 135.434 4.808C135.2 4.104 135.082 3.20933 135.082 2.124C136.608 2.212 138.837 2.256 141.77 2.256C144.293 2.256 146.434 2.212 148.194 2.124C148.194 3.268 148.092 4.16266 147.886 4.808C147.065 4.896 146.449 5.05733 146.038 5.292C145.628 5.52666 145.334 5.93733 145.158 6.524C145.012 7.11067 144.938 7.99067 144.938 9.164V25.048C144.938 26.2507 145.012 27.1453 145.158 27.732C145.334 28.3187 145.628 28.744 146.038 29.008C146.449 29.2427 147.065 29.3893 147.886 29.448C148.092 30.0347 148.194 30.9293 148.194 32.132C146.669 32.044 144.601 32 141.99 32C139.204 32 136.901 32.044 135.082 32.132C135.082 31.2227 135.2 30.328 135.434 29.448C136.256 29.3893 136.857 29.2427 137.238 29.008C137.649 28.744 137.928 28.3187 138.074 27.732C138.25 27.1453 138.338 26.2507 138.338 25.048V9.164ZM165.963 29.316C167.87 29.316 169.292 28.8907 170.231 28.04C171.17 27.1893 171.962 25.6933 172.607 23.552C174.132 23.7867 175.232 24.212 175.907 24.828C175.262 26.852 174.807 29.272 174.543 32.088C171.61 32.0293 168.251 32 164.467 32C160.302 32 156.107 32.044 151.883 32.132C151.883 30.9587 151.986 30.064 152.191 29.448C153.012 29.3893 153.628 29.2427 154.039 29.008C154.479 28.744 154.772 28.304 154.919 27.688C155.095 27.0427 155.183 26.0747 155.183 24.784V9.164C155.183 7.99067 155.095 7.12533 154.919 6.568C154.772 5.98133 154.494 5.57067 154.083 5.336C153.672 5.072 153.042 4.896 152.191 4.808C152.015 4.28 151.927 3.38533 151.927 2.124C154.156 2.212 156.342 2.256 158.483 2.256C161.064 2.256 163.235 2.212 164.995 2.124C164.995 2.79867 164.98 3.34133 164.951 3.752C164.922 4.13333 164.834 4.48533 164.687 4.808C163.866 4.896 163.25 5.05733 162.839 5.292C162.428 5.52666 162.135 5.952 161.959 6.568C161.812 7.15467 161.739 8.04933 161.739 9.252V24.696C161.739 25.9573 161.842 26.9107 162.047 27.556C162.252 28.2013 162.619 28.656 163.147 28.92C163.675 29.184 164.438 29.316 165.435 29.316H165.963ZM196.94 2.256C198.759 2.256 200.079 2.22666 200.9 2.168C200.9 3.01866 200.797 3.884 200.592 4.764C199.917 4.94 199.287 5.336 198.7 5.952C198.143 6.568 197.541 7.56533 196.896 8.944L191.22 20.956V24.036C191.22 25.5907 191.308 26.72 191.484 27.424C191.689 28.0987 192.041 28.5827 192.54 28.876C193.068 29.14 193.933 29.3307 195.136 29.448C195.371 30.24 195.488 31.1347 195.488 32.132C193.259 32.044 190.721 32 187.876 32C186.116 32 183.975 32.0293 181.452 32.088C181.129 32.1173 180.689 32.132 180.132 32.132C180.191 30.9293 180.323 30.0347 180.528 29.448C181.848 29.3307 182.772 29.1547 183.3 28.92C183.857 28.6853 184.224 28.2453 184.4 27.6C184.576 26.9253 184.664 25.8107 184.664 24.256V20.868L177.976 7.404C177.536 6.49467 177.067 5.84933 176.568 5.468C176.099 5.08666 175.541 4.86666 174.896 4.808C174.691 4.016 174.588 3.136 174.588 2.168C175.732 2.22666 177.756 2.256 180.66 2.256C184.033 2.256 186.248 2.22666 187.304 2.168C187.304 3.10667 187.216 3.972 187.04 4.764C185.896 4.88133 185.324 5.336 185.324 6.128C185.324 6.62667 185.559 7.37467 186.028 8.372C187.495 11.3933 188.844 14.488 190.076 17.656C191.689 13.9013 193.039 10.8653 194.124 8.548C194.564 7.668 194.784 6.94933 194.784 6.392C194.784 5.48267 194.153 4.95467 192.892 4.808C192.657 3.95733 192.54 3.07733 192.54 2.168C193.42 2.22666 194.887 2.256 196.94 2.256Z" fill="white"/>
<path d="M227.073 20.032C227.073 22.7013 226.897 24.784 226.545 26.28C226.193 27.7467 225.518 28.964 224.521 29.932C222.849 31.5747 220.414 32.396 217.217 32.396C214.459 32.396 212.259 32.0147 210.617 31.252C209.003 30.46 207.845 29.2867 207.141 27.732C206.466 26.1773 206.129 24.168 206.129 21.704V8.724C206.129 7.55067 206.055 6.7 205.909 6.172C205.762 5.61467 205.513 5.23333 205.161 5.028C204.809 4.79333 204.237 4.61733 203.445 4.5C203.269 3.796 203.181 3.004 203.181 2.124C204.383 2.212 206.173 2.256 208.549 2.256C211.453 2.256 213.594 2.212 214.973 2.124C214.973 3.092 214.899 3.884 214.753 4.5C213.843 4.61733 213.183 4.77866 212.773 4.984C212.391 5.18933 212.127 5.57067 211.981 6.128C211.834 6.656 211.761 7.52133 211.761 8.724V21.044C211.761 23.8013 212.274 25.928 213.301 27.424C214.327 28.92 216.043 29.668 218.449 29.668C219.241 29.668 220.033 29.5213 220.825 29.228C221.617 28.9347 222.277 28.4947 222.805 27.908C223.421 27.2627 223.846 26.3827 224.081 25.268C224.345 24.124 224.477 22.4227 224.477 20.164V10.22C224.477 8.724 224.389 7.59467 224.213 6.832C224.066 6.06933 223.787 5.52666 223.377 5.204C222.966 4.852 222.335 4.61733 221.485 4.5C221.338 3.67867 221.265 2.88666 221.265 2.124C222.321 2.212 223.787 2.256 225.665 2.256C227.425 2.256 228.877 2.212 230.021 2.124C230.021 2.74 229.933 3.532 229.757 4.5C229.023 4.588 228.466 4.808 228.085 5.16C227.733 5.48267 227.469 6.02533 227.293 6.788C227.146 7.55066 227.073 8.65066 227.073 10.088V20.032ZM253.369 23.948C254.63 24.036 255.657 24.344 256.449 24.872C256.214 25.8693 256.009 27.0427 255.833 28.392C255.657 29.7413 255.554 30.988 255.525 32.132C252.826 32.044 249.013 32 244.085 32C239.655 32 236.399 32.044 234.317 32.132C233.965 31.516 233.789 30.856 233.789 30.152L235.285 27.688C237.602 23.7867 239.934 19.8267 242.281 15.808C244.657 11.7893 246.813 8.02 248.749 4.5H243.821C242.589 4.5 241.606 4.66133 240.873 4.984C240.169 5.27733 239.582 5.84933 239.113 6.7C238.673 7.52133 238.277 8.75333 237.925 10.396C236.458 10.396 235.387 10.22 234.713 9.868C235.006 8.84133 235.226 7.624 235.373 6.216C235.549 4.808 235.637 3.45867 235.637 2.168C238.218 2.22666 241.753 2.256 246.241 2.256C250.171 2.256 253.119 2.22666 255.085 2.168C255.495 2.72533 255.715 3.38533 255.745 4.148C250.553 13.6227 245.61 22.1293 240.917 29.668H245.977C247.707 29.668 249.027 29.5213 249.937 29.228C250.846 28.9347 251.55 28.392 252.049 27.6C252.577 26.808 253.017 25.5907 253.369 23.948Z" fill="#5064D6"/>
</svg>
