<svg width="22" height="22" viewBox="0 0 22 22" fill="none" xmlns="http://www.w3.org/2000/svg">
<path d="M6.50001 14C6.23479 14 5.98044 14.1054 5.7929 14.2929C5.60536 14.4804 5.50001 14.7348 5.50001 15V16C5.50001 16.2652 5.60536 16.5196 5.7929 16.7071C5.98044 16.8946 6.23479 17 6.50001 17C6.76522 17 7.01958 16.8946 7.20711 16.7071C7.39465 16.5196 7.50001 16.2652 7.50001 16V15C7.50001 14.7348 7.39465 14.4804 7.20711 14.2929C7.01958 14.1054 6.76522 14 6.50001 14ZM21 6H19.9C19.7667 5.37352 19.5193 4.77691 19.17 4.24L20 3.47C20.0932 3.37676 20.1672 3.26607 20.2177 3.14425C20.2681 3.02243 20.2941 2.89186 20.2941 2.76C20.2941 2.62814 20.2681 2.49757 20.2177 2.37575C20.1672 2.25393 20.0932 2.14324 20 2.05C19.9068 1.95676 19.7961 1.8828 19.6743 1.83234C19.5524 1.78188 19.4219 1.75591 19.29 1.75591C19.1581 1.75591 19.0276 1.78188 18.9058 1.83234C18.7839 1.8828 18.6732 1.95676 18.58 2.05L17.81 2.83C17.2605 2.47014 16.6454 2.22208 16 2.1V1C16 0.734784 15.8946 0.48043 15.7071 0.292893C15.5196 0.105357 15.2652 0 15 0C14.7348 0 14.4804 0.105357 14.2929 0.292893C14.1054 0.48043 14 0.734784 14 1V2.1C13.3735 2.23329 12.7769 2.48075 12.24 2.83L11.47 2.05C11.3768 1.95676 11.2661 1.8828 11.1443 1.83234C11.0224 1.78188 10.8919 1.75591 10.76 1.75591C10.6281 1.75591 10.4976 1.78188 10.3758 1.83234C10.2539 1.8828 10.1432 1.95676 10.05 2.05C9.8617 2.2383 9.75591 2.4937 9.75591 2.76C9.75591 3.0263 9.8617 3.2817 10.05 3.47L10.83 4.24C10.4335 4.84404 10.1709 5.526 10.06 6.24C9.55348 6.0888 9.02855 6.00804 8.50001 6C7.05886 5.99918 5.66557 6.5171 4.57488 7.45906C3.48419 8.40102 2.76897 9.70409 2.56001 11.13C1.86364 11.3239 1.2444 11.7287 0.78734 12.2887C0.330283 12.8487 0.0578363 13.5365 0.00742504 14.2576C-0.0429862 14.9787 0.131111 15.6978 0.505802 16.3159C0.880492 16.9341 1.43739 17.4211 2.10001 17.71C2.22744 17.7605 2.36295 17.7876 2.50001 17.79C2.7312 17.7919 2.95591 17.7136 3.13589 17.5685C3.31586 17.4233 3.43999 17.2203 3.48715 16.994C3.5343 16.7676 3.50157 16.532 3.39452 16.327C3.28747 16.1221 3.11272 15.9606 2.90001 15.87C2.6317 15.7557 2.40314 15.5647 2.24302 15.321C2.0829 15.0772 1.99836 14.7916 2.00001 14.5C2.00001 14.1022 2.15804 13.7206 2.43935 13.4393C2.72065 13.158 3.10218 13 3.50001 13C3.76522 13 4.01958 12.8946 4.20711 12.7071C4.39465 12.5196 4.50001 12.2652 4.50001 12C4.50429 11.0557 4.84253 10.1434 5.45484 9.42447C6.06716 8.70558 6.91406 8.22651 7.84566 8.07204C8.77725 7.91757 9.73346 8.09768 10.545 8.58047C11.3566 9.06326 11.9712 9.81761 12.28 10.71C12.3372 10.8818 12.4399 11.0349 12.5773 11.1529C12.7147 11.2709 12.8815 11.3494 13.06 11.38C13.5245 11.4488 13.9571 11.6569 14.3008 11.9768C14.6445 12.2967 14.883 12.7133 14.9849 13.1717C15.0867 13.63 15.0471 14.1085 14.8713 14.5439C14.6954 14.9792 14.3916 15.351 14 15.61C13.8897 15.6822 13.7947 15.7755 13.7204 15.8844C13.6461 15.9934 13.5941 16.1159 13.5671 16.2449C13.5402 16.374 13.539 16.5071 13.5635 16.6367C13.588 16.7662 13.6378 16.8897 13.71 17C13.8559 17.2228 14.0843 17.3785 14.3449 17.4329C14.474 17.4598 14.6071 17.4611 14.7367 17.4365C14.8662 17.412 14.9897 17.3622 15.1 17.29C15.6897 16.8891 16.1716 16.3491 16.503 15.7177C16.8343 15.0864 17.0051 14.383 17 13.67C16.9969 13.0042 16.843 12.3478 16.55 11.75C16.9768 11.6101 17.3836 11.4151 17.76 11.17L18.53 11.95C18.6201 12.0548 18.731 12.1397 18.8556 12.1995C18.9803 12.2592 19.1159 12.2925 19.254 12.2972C19.3922 12.3019 19.5298 12.2779 19.6582 12.2268C19.7866 12.1756 19.903 12.0984 20 12C20.0937 11.907 20.1681 11.7964 20.2189 11.6746C20.2697 11.5527 20.2958 11.422 20.2958 11.29C20.2958 11.158 20.2697 11.0273 20.2189 10.9054C20.1681 10.7836 20.0937 10.673 20 10.58L19.22 9.81C19.5623 9.25666 19.7933 8.64183 19.9 8H21C21.2652 8 21.5196 7.89464 21.7071 7.70711C21.8946 7.51957 22 7.26522 22 7C22 6.73478 21.8946 6.48043 21.7071 6.29289C21.5196 6.10536 21.2652 6 21 6ZM17.13 9.12C16.8505 9.39985 16.5184 9.62167 16.1529 9.77269C15.7873 9.92372 15.3955 10.001 15 10H14.94C14.6287 9.80263 14.2924 9.64791 13.94 9.54C13.4969 8.58293 12.8065 7.76136 11.94 7.16C11.94 7.1 11.94 7.06 11.94 7C11.9381 6.20605 12.2509 5.4437 12.81 4.88C13.3851 4.33857 14.1452 4.03707 14.935 4.03707C15.7249 4.03707 16.4849 4.33857 17.06 4.88C17.3397 5.15871 17.5616 5.48989 17.713 5.85454C17.8644 6.2192 17.9424 6.61016 17.9424 7.005C17.9424 7.39984 17.8644 7.7908 17.713 8.15546C17.5616 8.52011 17.3397 8.85129 17.06 9.13L17.13 9.12ZM6.50001 19C6.23479 19 5.98044 19.1054 5.7929 19.2929C5.60536 19.4804 5.50001 19.7348 5.50001 20V21C5.50001 21.2652 5.60536 21.5196 5.7929 21.7071C5.98044 21.8946 6.23479 22 6.50001 22C6.76522 22 7.01958 21.8946 7.20711 21.7071C7.39465 21.5196 7.50001 21.2652 7.50001 21V20C7.50001 19.7348 7.39465 19.4804 7.20711 19.2929C7.01958 19.1054 6.76522 19 6.50001 19ZM10.5 18C10.2348 18 9.98044 18.1054 9.7929 18.2929C9.60536 18.4804 9.50001 18.7348 9.50001 19V20C9.50001 20.2652 9.60536 20.5196 9.7929 20.7071C9.98044 20.8946 10.2348 21 10.5 21C10.7652 21 11.0196 20.8946 11.2071 20.7071C11.3946 20.5196 11.5 20.2652 11.5 20V19C11.5 18.7348 11.3946 18.4804 11.2071 18.2929C11.0196 18.1054 10.7652 18 10.5 18ZM10.5 13C10.2348 13 9.98044 13.1054 9.7929 13.2929C9.60536 13.4804 9.50001 13.7348 9.50001 14V15C9.50001 15.2652 9.60536 15.5196 9.7929 15.7071C9.98044 15.8946 10.2348 16 10.5 16C10.7652 16 11.0196 15.8946 11.2071 15.7071C11.3946 15.5196 11.5 15.2652 11.5 15V14C11.5 13.7348 11.3946 13.4804 11.2071 13.2929C11.0196 13.1054 10.7652 13 10.5 13Z" fill="#0F1640"/>
</svg>
