<svg width="259" height="33" viewBox="0 0 259 33" fill="none" xmlns="http://www.w3.org/2000/svg">
<path d="M24.124 2.624C24.0947 4.67733 24.2267 7.09733 24.52 9.884C23.7573 10.2067 22.9067 10.3533 21.968 10.324C21.8507 8.50533 21.396 7.156 20.604 6.276C19.8413 5.36667 18.6387 4.912 16.996 4.912H14.884V26.516C14.884 27.6013 14.972 28.408 15.148 28.936C15.324 29.464 15.6613 29.8453 16.16 30.08C16.6587 30.3147 17.4213 30.4613 18.448 30.52C18.624 31.048 18.712 31.752 18.712 32.632C16.864 32.544 14.796 32.5 12.508 32.5C9.868 32.5 7.712 32.544 6.04 32.632C6.04 31.752 6.128 31.048 6.304 30.52C7.33067 30.4613 8.09333 30.3147 8.592 30.08C9.12 29.8453 9.48667 29.464 9.692 28.936C9.89733 28.3787 10 27.572 10 26.516V4.912H8.108C6.81733 4.912 5.80533 5.132 5.072 5.572C4.33867 5.98266 3.81067 6.55467 3.488 7.288C3.16533 8.02133 2.872 9.03333 2.608 10.324C1.464 10.324 0.628 10.1773 0.1 9.884C0.598667 7.332 0.848 4.912 0.848 2.624C2.63733 2.712 6.50933 2.756 12.464 2.756C18.5067 2.756 22.3933 2.712 24.124 2.624ZM49.9922 30.52C50.1682 30.9893 50.2562 31.6933 50.2562 32.632C48.9949 32.544 47.3229 32.5 45.2402 32.5C44.2722 32.5 42.4242 32.544 39.6962 32.632C39.6962 31.6933 39.7842 30.9893 39.9602 30.52C40.9869 30.52 41.7202 30.2413 42.1602 29.684C42.6296 29.0973 42.8642 28.0707 42.8642 26.604V20.488C42.8642 18.5813 42.5269 17.232 41.8522 16.44C41.1776 15.648 40.2242 15.252 38.9922 15.252C38.1709 15.252 37.3936 15.516 36.6602 16.044C35.9562 16.5427 35.3696 17.3493 34.9002 18.464C34.4309 19.5493 34.1962 20.8987 34.1962 22.512V26.692C34.1962 28.1587 34.4016 29.1707 34.8122 29.728C35.2522 30.256 36.0149 30.52 37.1002 30.52C37.2762 31.0187 37.3642 31.7227 37.3642 32.632C34.8122 32.544 32.9789 32.5 31.8642 32.5C29.4589 32.5 27.6109 32.544 26.3202 32.632C26.3202 31.664 26.3936 30.96 26.5402 30.52C27.6842 30.52 28.4762 30.256 28.9162 29.728C29.3562 29.1707 29.5762 28.1587 29.5762 26.692V7.464C29.5762 6.70133 29.4882 6.11467 29.3122 5.704C29.1656 5.264 28.8576 4.92667 28.3882 4.692C27.9189 4.45733 27.2149 4.34 26.2762 4.34C26.2762 3.51866 26.4082 2.888 26.6722 2.448C27.6109 2.448 28.7842 2.28667 30.1922 1.964C31.6296 1.64133 32.6122 1.304 33.1402 0.952C33.8442 1.216 34.1962 1.86133 34.1962 2.888V14.02C34.1962 14.8413 34.0789 15.7067 33.8442 16.616C33.8736 16.5573 33.9616 16.3813 34.1082 16.088C34.2549 15.7947 34.4456 15.5013 34.6802 15.208C35.2962 14.3867 36.1469 13.6827 37.2322 13.096C38.3469 12.48 39.5936 12.172 40.9722 12.172C42.8789 12.172 44.4336 12.744 45.6362 13.888C46.8682 15.032 47.4842 16.8507 47.4842 19.344V26.692C47.4842 28.1293 47.6749 29.1267 48.0562 29.684C48.4669 30.2413 49.1122 30.52 49.9922 30.52ZM69.9858 27.792C70.2204 27.9387 70.4404 28.1733 70.6458 28.496C70.8804 28.7893 71.0124 29.0827 71.0418 29.376C70.0444 30.608 68.8711 31.5027 67.5218 32.06C66.2018 32.6173 64.6911 32.896 62.9898 32.896C59.8218 32.896 57.4018 31.928 55.7298 29.992C54.0871 28.0267 53.2658 25.5187 53.2658 22.468C53.2658 20.532 53.6471 18.772 54.4098 17.188C55.2018 15.5747 56.3164 14.2987 57.7538 13.36C59.1911 12.4213 60.8484 11.952 62.7258 11.952C65.5124 11.952 67.5804 12.788 68.9298 14.46C70.2791 16.132 71.0418 18.3613 71.2178 21.148C71.1004 21.7933 70.8511 22.3507 70.4698 22.82C65.3071 22.82 61.2298 22.8933 58.2378 23.04C58.4431 25.152 59.0444 26.868 60.0418 28.188C61.0391 29.508 62.5498 30.168 64.5738 30.168C65.5711 30.168 66.5391 29.9627 67.4778 29.552C68.4458 29.1413 69.2818 28.5547 69.9858 27.792ZM62.4178 14.24C61.2738 14.24 60.3058 14.7533 59.5138 15.78C58.7218 16.7773 58.2818 18.4053 58.1938 20.664H66.2458C66.2458 18.6987 65.9084 17.144 65.2338 16C64.5591 14.8267 63.6204 14.24 62.4178 14.24ZM87.4692 2.668C92.3679 2.668 96.2986 3.68 99.2612 5.704C102.253 7.69867 103.749 11.424 103.749 16.88C103.749 21.2213 102.796 24.5507 100.889 26.868C98.9826 29.156 96.8119 30.6667 94.3772 31.4C91.9719 32.1333 89.6399 32.5 87.3812 32.5C83.2159 32.5 79.0212 32.544 74.7972 32.632C74.7972 31.4587 74.8999 30.564 75.1052 29.948C75.9266 29.8893 76.5426 29.7427 76.9532 29.508C77.3932 29.244 77.6866 28.804 77.8332 28.188C78.0092 27.5427 78.0972 26.5747 78.0972 25.284V9.664C78.0972 8.49067 78.0092 7.61067 77.8332 7.024C77.6866 6.43733 77.4079 6.02666 76.9972 5.792C76.5866 5.55733 75.9559 5.396 75.1052 5.308C74.9292 4.78 74.8412 3.88533 74.8412 2.624C76.5426 2.712 79.1239 2.756 82.5852 2.756C83.5239 2.756 84.2426 2.74133 84.7412 2.712L87.4692 2.668ZM88.3492 29.816C90.8426 29.816 92.8959 28.9507 94.5092 27.22C96.1226 25.4893 96.9292 22.292 96.9292 17.628C96.9292 13.228 96.0052 10.06 94.1572 8.124C92.3386 6.15866 90.0066 5.176 87.1612 5.176C86.2226 5.176 85.3866 5.32267 84.6532 5.616V25.196C84.6532 26.4573 84.7559 27.4107 84.9612 28.056C85.1666 28.7013 85.5332 29.156 86.0612 29.42C86.5892 29.684 87.3519 29.816 88.3492 29.816ZM134.201 29.948C134.406 30.652 134.509 31.5467 134.509 32.632C133.159 32.544 131.15 32.5 128.481 32.5C125.518 32.5 123.377 32.544 122.057 32.632C122.057 31.4587 122.174 30.564 122.409 29.948C123.113 29.8307 123.626 29.6693 123.949 29.464C124.271 29.2293 124.433 28.9067 124.433 28.496C124.433 28.1147 124.242 27.4693 123.861 26.56L122.805 24.052C118.874 24.052 115.266 24.1547 111.981 24.36L111.409 25.9C111.086 26.7213 110.925 27.396 110.925 27.924C110.925 29.0973 111.629 29.772 113.037 29.948C113.242 30.5933 113.345 31.488 113.345 32.632C112.347 32.544 110.793 32.5 108.681 32.5C106.921 32.5 105.601 32.544 104.721 32.632C104.721 31.5467 104.853 30.652 105.117 29.948C105.85 29.8307 106.437 29.4787 106.877 28.892C107.346 28.276 107.933 27.1027 108.637 25.372L117.833 2.712C118.243 2.624 118.654 2.56533 119.065 2.536C119.475 2.50666 119.93 2.492 120.429 2.492L130.505 25.152C131.121 26.5013 131.605 27.4987 131.957 28.144C132.338 28.7893 132.69 29.244 133.013 29.508C133.335 29.7427 133.731 29.8893 134.201 29.948ZM121.749 21.632L119.285 15.912C118.375 13.888 117.686 12.0253 117.217 10.324C116.689 12.084 116.043 13.9467 115.281 15.912L113.081 21.632H121.749ZM140.358 9.664C140.358 8.46133 140.27 7.58133 140.094 7.024C139.947 6.43733 139.669 6.02666 139.258 5.792C138.877 5.55733 138.275 5.396 137.454 5.308C137.219 4.604 137.102 3.70933 137.102 2.624C138.627 2.712 140.857 2.756 143.79 2.756C146.313 2.756 148.454 2.712 150.214 2.624C150.214 3.768 150.111 4.66266 149.906 5.308C149.085 5.396 148.469 5.55733 148.058 5.792C147.647 6.02666 147.354 6.43733 147.178 7.024C147.031 7.61067 146.958 8.49067 146.958 9.664V25.548C146.958 26.7507 147.031 27.6453 147.178 28.232C147.354 28.8187 147.647 29.244 148.058 29.508C148.469 29.7427 149.085 29.8893 149.906 29.948C150.111 30.5347 150.214 31.4293 150.214 32.632C148.689 32.544 146.621 32.5 144.01 32.5C141.223 32.5 138.921 32.544 137.102 32.632C137.102 31.7227 137.219 30.828 137.454 29.948C138.275 29.8893 138.877 29.7427 139.258 29.508C139.669 29.244 139.947 28.8187 140.094 28.232C140.27 27.6453 140.358 26.7507 140.358 25.548V9.664ZM167.983 29.816C169.889 29.816 171.312 29.3907 172.251 28.54C173.189 27.6893 173.981 26.1933 174.627 24.052C176.152 24.2867 177.252 24.712 177.927 25.328C177.281 27.352 176.827 29.772 176.563 32.588C173.629 32.5293 170.271 32.5 166.487 32.5C162.321 32.5 158.127 32.544 153.903 32.632C153.903 31.4587 154.005 30.564 154.211 29.948C155.032 29.8893 155.648 29.7427 156.059 29.508C156.499 29.244 156.792 28.804 156.939 28.188C157.115 27.5427 157.203 26.5747 157.203 25.284V9.664C157.203 8.49067 157.115 7.62533 156.939 7.068C156.792 6.48133 156.513 6.07067 156.103 5.836C155.692 5.572 155.061 5.396 154.211 5.308C154.035 4.78 153.947 3.88533 153.947 2.624C156.176 2.712 158.361 2.756 160.503 2.756C163.084 2.756 165.255 2.712 167.015 2.624C167.015 3.29867 167 3.84133 166.971 4.252C166.941 4.63333 166.853 4.98533 166.707 5.308C165.885 5.396 165.269 5.55733 164.859 5.792C164.448 6.02666 164.155 6.452 163.979 7.068C163.832 7.65467 163.759 8.54933 163.759 9.752V25.196C163.759 26.4573 163.861 27.4107 164.067 28.056C164.272 28.7013 164.639 29.156 165.167 29.42C165.695 29.684 166.457 29.816 167.455 29.816H167.983ZM198.959 2.756C200.778 2.756 202.098 2.72666 202.919 2.668C202.919 3.51866 202.817 4.384 202.611 5.264C201.937 5.44 201.306 5.836 200.719 6.452C200.162 7.068 199.561 8.06533 198.915 9.444L193.239 21.456V24.536C193.239 26.0907 193.327 27.22 193.503 27.924C193.709 28.5987 194.061 29.0827 194.559 29.376C195.087 29.64 195.953 29.8307 197.155 29.948C197.39 30.74 197.507 31.6347 197.507 32.632C195.278 32.544 192.741 32.5 189.895 32.5C188.135 32.5 185.994 32.5293 183.471 32.588C183.149 32.6173 182.709 32.632 182.151 32.632C182.21 31.4293 182.342 30.5347 182.547 29.948C183.867 29.8307 184.791 29.6547 185.319 29.42C185.877 29.1853 186.243 28.7453 186.419 28.1C186.595 27.4253 186.683 26.3107 186.683 24.756V21.368L179.995 7.904C179.555 6.99467 179.086 6.34933 178.587 5.968C178.118 5.58666 177.561 5.36666 176.915 5.308C176.71 4.516 176.607 3.636 176.607 2.668C177.751 2.72666 179.775 2.756 182.679 2.756C186.053 2.756 188.267 2.72666 189.323 2.668C189.323 3.60667 189.235 4.472 189.059 5.264C187.915 5.38133 187.343 5.836 187.343 6.628C187.343 7.12667 187.578 7.87467 188.047 8.872C189.514 11.8933 190.863 14.988 192.095 18.156C193.709 14.4013 195.058 11.3653 196.143 9.048C196.583 8.168 196.803 7.44933 196.803 6.892C196.803 5.98267 196.173 5.45467 194.911 5.308C194.677 4.45733 194.559 3.57733 194.559 2.668C195.439 2.72666 196.906 2.756 198.959 2.756Z" fill="#0F1640"/>
<path d="M229.092 20.532C229.092 23.2013 228.916 25.284 228.564 26.78C228.212 28.2467 227.537 29.464 226.54 30.432C224.868 32.0747 222.433 32.896 219.236 32.896C216.479 32.896 214.279 32.5147 212.636 31.752C211.023 30.96 209.864 29.7867 209.16 28.232C208.485 26.6773 208.148 24.668 208.148 22.204V9.224C208.148 8.05067 208.075 7.2 207.928 6.672C207.781 6.11467 207.532 5.73333 207.18 5.528C206.828 5.29333 206.256 5.11733 205.464 5C205.288 4.296 205.2 3.504 205.2 2.624C206.403 2.712 208.192 2.756 210.568 2.756C213.472 2.756 215.613 2.712 216.992 2.624C216.992 3.592 216.919 4.384 216.772 5C215.863 5.11733 215.203 5.27866 214.792 5.484C214.411 5.68933 214.147 6.07067 214 6.628C213.853 7.156 213.78 8.02133 213.78 9.224V21.544C213.78 24.3013 214.293 26.428 215.32 27.924C216.347 29.42 218.063 30.168 220.468 30.168C221.26 30.168 222.052 30.0213 222.844 29.728C223.636 29.4347 224.296 28.9947 224.824 28.408C225.44 27.7627 225.865 26.8827 226.1 25.768C226.364 24.624 226.496 22.9227 226.496 20.664V10.72C226.496 9.224 226.408 8.09467 226.232 7.332C226.085 6.56933 225.807 6.02666 225.396 5.704C224.985 5.352 224.355 5.11733 223.504 5C223.357 4.17867 223.284 3.38666 223.284 2.624C224.34 2.712 225.807 2.756 227.684 2.756C229.444 2.756 230.896 2.712 232.04 2.624C232.04 3.24 231.952 4.032 231.776 5C231.043 5.088 230.485 5.308 230.104 5.66C229.752 5.98267 229.488 6.52533 229.312 7.288C229.165 8.05066 229.092 9.15066 229.092 10.588V20.532ZM255.388 24.448C256.65 24.536 257.676 24.844 258.468 25.372C258.234 26.3693 258.028 27.5427 257.852 28.892C257.676 30.2413 257.574 31.488 257.544 32.632C254.846 32.544 251.032 32.5 246.104 32.5C241.675 32.5 238.419 32.544 236.336 32.632C235.984 32.016 235.808 31.356 235.808 30.652L237.304 28.188C239.622 24.2867 241.954 20.3267 244.3 16.308C246.676 12.2893 248.832 8.52 250.768 5H245.84C244.608 5 243.626 5.16133 242.892 5.484C242.188 5.77733 241.602 6.34933 241.132 7.2C240.692 8.02133 240.296 9.25333 239.944 10.896C238.478 10.896 237.407 10.72 236.732 10.368C237.026 9.34133 237.246 8.124 237.392 6.716C237.568 5.308 237.656 3.95867 237.656 2.668C240.238 2.72666 243.772 2.756 248.26 2.756C252.191 2.756 255.139 2.72666 257.104 2.668C257.515 3.22533 257.735 3.88533 257.764 4.648C252.572 14.1227 247.63 22.6293 242.936 30.168H247.996C249.727 30.168 251.047 30.0213 251.956 29.728C252.866 29.4347 253.57 28.892 254.068 28.1C254.596 27.308 255.036 26.0907 255.388 24.448Z" fill="#5064D6"/>
</svg>
