<svg width="22" height="17" viewBox="0 0 22 17" fill="none" xmlns="http://www.w3.org/2000/svg">
<path d="M20.9199 8.1C18.8999 3.41 15.0999 0.5 10.9999 0.5C6.89994 0.5 3.09994 3.41 1.07994 8.1C1.02488 8.22617 0.99646 8.36234 0.99646 8.5C0.99646 8.63766 1.02488 8.77383 1.07994 8.9C3.09994 13.59 6.89994 16.5 10.9999 16.5C15.0999 16.5 18.8999 13.59 20.9199 8.9C20.975 8.77383 21.0034 8.63766 21.0034 8.5C21.0034 8.36234 20.975 8.22617 20.9199 8.1ZM10.9999 14.5C7.82994 14.5 4.82994 12.21 3.09994 8.5C4.82994 4.79 7.82994 2.5 10.9999 2.5C14.1699 2.5 17.1699 4.79 18.8999 8.5C17.1699 12.21 14.1699 14.5 10.9999 14.5ZM10.9999 4.5C10.2088 4.5 9.43546 4.7346 8.77766 5.17412C8.11987 5.61365 7.60718 6.23836 7.30443 6.96927C7.00168 7.70017 6.92246 8.50444 7.0768 9.28036C7.23114 10.0563 7.61211 10.769 8.17152 11.3284C8.73093 11.8878 9.44366 12.2688 10.2196 12.4231C10.9955 12.5775 11.7998 12.4983 12.5307 12.1955C13.2616 11.8928 13.8863 11.3801 14.3258 10.7223C14.7653 10.0645 14.9999 9.29113 14.9999 8.5C14.9999 7.43913 14.5785 6.42172 13.8284 5.67157C13.0782 4.92143 12.0608 4.5 10.9999 4.5ZM10.9999 10.5C10.6044 10.5 10.2177 10.3827 9.8888 10.1629C9.55991 9.94318 9.30356 9.63082 9.15219 9.26537C9.00081 8.89991 8.9612 8.49778 9.03837 8.10982C9.11554 7.72186 9.30603 7.36549 9.58573 7.08579C9.86544 6.80608 10.2218 6.6156 10.6098 6.53843C10.9977 6.46126 11.3999 6.50087 11.7653 6.65224C12.1308 6.80362 12.4431 7.05996 12.6629 7.38886C12.8826 7.71776 12.9999 8.10444 12.9999 8.5C12.9999 9.03043 12.7892 9.53914 12.4142 9.91421C12.0391 10.2893 11.5304 10.5 10.9999 10.5Z" fill="#A2A5BF"/>
</svg>
